<svg viewBox="0 0 64 64" fill="none" xmlns="http://www.w3.org/2000/svg">
<g clip-path="url(#clip0_91_15272)">
<path d="M1.1387 40.4786C0.384155 37.7307 0 34.8766 0 32.0019C0 18.8791 8.24168 6.88016 20.5099 2.14844L22.1184 6.3114C11.5582 10.3853 4.46553 20.7087 4.46553 32.0019C4.46553 34.4791 4.79477 36.9323 5.443 39.2964L1.1387 40.4786Z" fill="#58D09E"/>
<path d="M20.2955 2.25038C22.9495 1.21274 25.7478 0.532349 28.6067 0.231864C41.6576 -1.13984 54.4523 5.80246 60.4405 17.5088L56.4685 19.5437C51.3131 9.46722 40.3048 3.49247 29.0735 4.67293C26.6099 4.93187 24.2045 5.51574 21.9211 6.40753L20.2955 2.25038Z" fill="#58D09E"/>
<path d="M46.6473 55.2686C55.3618 49.7138 60.2156 39.8558 59.3137 29.5476C58.9942 25.8951 57.9805 22.4067 56.3057 19.1862L60.2628 17.122C62.2103 20.8661 63.3899 24.915 63.7612 29.1585C64.8089 41.1341 59.1725 52.5822 49.0474 59.0352L46.6473 55.2686Z" fill="black"/>
<path d="M22.5026 25.3993C25.092 25.3993 27.2013 26.7801 28.2852 29.1888L28.3709 29.3773L32.7197 27.9005L32.6272 27.6779C30.9432 23.5765 27.0641 21.0273 22.5026 21.0273C19.2957 21.0273 16.6892 22.0553 14.5353 24.1659C12.3951 26.2628 11.3113 28.9011 11.3113 32.0087C11.3113 35.0889 12.3951 37.7135 14.5353 39.8104C16.6892 41.9211 19.2957 42.9489 22.5026 42.9489C27.0641 42.9489 30.9432 40.3997 32.6272 36.3019L32.7197 36.0792L28.364 34.5989L28.2817 34.7943C27.311 37.1619 25.1504 38.5769 22.5026 38.5769C20.6985 38.5769 19.1757 37.9465 17.9684 36.7061C16.7474 35.4487 16.1301 33.8692 16.1301 32.0121C16.1301 30.1413 16.7337 28.5927 17.9684 27.2769C19.1722 26.0299 20.6985 25.3993 22.5026 25.3993Z" fill="black"/>
<path d="M49.7414 21.4316L43.544 37.1138L37.3053 21.4316H32.2018L40.951 42.8358L34.7261 57.932L39.1882 58.8195L54.5637 21.4316H49.7414Z" fill="black"/>
<path d="M35.5245 55.9859L34.4373 58.6174C34.2212 59.1382 33.7273 59.491 33.1717 59.515C32.8048 59.5287 32.4344 59.539 32.0605 59.539C19.2641 59.5322 7.94257 50.5107 5.13704 38.0801L0.78125 39.0634C2.35551 46.0359 6.30659 52.3643 11.9073 56.8871C17.5733 61.4611 24.7105 63.9863 32.0125 64.0001C32.0228 64.0001 32.0776 64.0001 32.0776 64.0001C32.5064 64.0001 32.9316 63.9898 33.3569 63.9727C35.648 63.8767 37.6956 62.4411 38.5701 60.3134L39.99 56.8734L35.5245 55.9859Z" fill="black"/>
</g>
<defs>
<clipPath id="clip0_91_15272">
<rect width="64" height="64" fill="white"/>
</clipPath>
</defs>
</svg>
