<svg viewBox="0 0 68 64" fill="none" xmlns="http://www.w3.org/2000/svg">
<path fill-rule="evenodd" clip-rule="evenodd" d="M39.2553 1.06152C38.8035 1.06152 38.384 1.15861 37.9967 1.28806C38.8196 1.83821 39.2714 2.56636 39.4973 3.39158C39.5135 3.50485 39.5457 3.58576 39.5619 3.69902C39.578 3.79611 39.5941 3.89319 39.5941 3.99028C39.6587 5.4142 39.223 5.59219 38.9164 6.4336C38.4485 7.51773 38.5776 8.68276 39.1423 9.62126C39.1907 9.73452 39.2553 9.86397 39.336 9.97724C38.7228 5.88345 42.1273 5.26858 42.7566 3.99028C42.805 2.87379 41.8853 2.12947 41.1592 1.61168C40.4654 1.19097 39.8361 1.06152 39.2553 1.06152ZM44.3862 1.98384C44.3217 2.356 44.3701 2.25891 44.354 2.45309C44.3378 2.58253 44.3378 2.74435 44.3217 2.87379C44.2895 3.00324 44.2572 3.13269 44.2088 3.26214C44.1765 3.39158 44.1281 3.52103 44.0797 3.65048C44.0151 3.77993 43.9668 3.89319 43.9022 4.02264C43.8538 4.08739 43.8215 4.15209 43.7731 4.21681C43.7409 4.26536 43.7086 4.3139 43.6763 4.36244C43.5957 4.47571 43.515 4.58898 43.4343 4.68606C43.3375 4.78315 43.2568 4.89641 43.1439 4.97732V4.99352C43.0471 5.07443 42.9503 5.17151 42.8373 5.25242C42.4985 5.51131 42.1112 5.70548 41.7563 5.9482C41.6433 6.0291 41.5304 6.09383 41.4336 6.19092C41.3206 6.27182 41.2238 6.35272 41.127 6.44981C41.014 6.54689 40.9334 6.64398 40.8366 6.75725C40.7559 6.85434 40.6591 6.9676 40.5945 7.08087C40.5139 7.19413 40.4332 7.3074 40.3686 7.42067C40.3041 7.55011 40.2557 7.66338 40.1912 7.79283C40.1428 7.92227 40.0943 8.03554 40.0621 8.16499C40.0137 8.31062 39.9814 8.44007 39.9491 8.56952C39.933 8.63427 39.933 8.71514 39.9169 8.77987C39.9007 8.84462 39.9007 8.90931 39.8847 8.97404C39.8847 9.10349 39.8685 9.24912 39.8685 9.37856C39.8685 9.47565 39.8685 9.57273 39.8847 9.66982C39.8847 9.79927 39.9008 9.92871 39.9331 10.0743C39.9492 10.2038 39.9815 10.3332 40.0137 10.4627C40.0621 10.5921 40.0944 10.7216 40.1428 10.851C40.1751 10.9319 40.2235 11.0128 40.2558 11.0776L36.5447 9.63746C35.9154 9.45947 35.3023 9.29766 34.673 9.15203C34.3342 9.07113 33.9954 8.99022 33.6565 8.90932C32.6884 8.71514 31.7042 8.56952 30.72 8.47243C30.6877 8.47243 30.6716 8.45623 30.6393 8.45623C29.6712 8.35915 28.7192 8.3106 27.7511 8.3106C27.0412 8.3106 26.3312 8.34294 25.6374 8.39151C24.6532 8.45626 23.6689 8.58568 22.6847 8.74748C22.4427 8.77982 22.2006 8.8284 21.9586 8.87694C21.4584 8.97402 20.9744 9.08729 20.5065 9.20056C20.2644 9.26531 20.0224 9.33 19.7804 9.39472C19.5384 9.49181 19.3125 9.60508 19.0866 9.70217C18.9091 9.78307 18.7316 9.86397 18.5541 9.94488C18.5219 9.96108 18.4896 9.96108 18.4735 9.97722C18.3121 10.0581 18.1669 10.1228 18.0217 10.2038C17.9733 10.22 17.941 10.2361 17.9087 10.2523C17.7312 10.3332 17.5538 10.4303 17.4085 10.5112C17.2956 10.5597 17.1827 10.6245 17.0858 10.673C17.0374 10.7053 16.9729 10.7378 16.9406 10.7539C16.7954 10.8348 16.6502 10.9157 16.5211 10.9966C16.3759 11.0775 16.2468 11.1584 16.1339 11.2393C16.0209 11.3202 15.908 11.385 15.8112 11.4659C15.795 11.4821 15.7789 11.4821 15.7628 11.4982C15.666 11.563 15.553 11.6438 15.4562 11.7247C15.4562 11.7247 15.44 11.7409 15.424 11.7571C15.3433 11.8218 15.2626 11.8865 15.1819 11.9512C15.1497 11.9674 15.1174 11.9998 15.0851 12.016C15.0045 12.0807 14.9238 12.1616 14.8431 12.2263C14.8269 12.2587 14.7947 12.2749 14.7785 12.2911C14.6817 12.3882 14.5849 12.4691 14.4881 12.5662C14.4719 12.5662 14.4719 12.5824 14.4559 12.5985C14.359 12.6794 14.2622 12.7765 14.1654 12.8736C14.1493 12.8898 14.1493 12.9059 14.1332 12.9059C14.0525 12.9868 13.9718 13.0677 13.8912 13.1648C13.8589 13.1972 13.8105 13.2296 13.7782 13.2619C13.6975 13.359 13.6007 13.4561 13.5039 13.5532C13.4878 13.5855 13.4555 13.6017 13.4394 13.6341C13.3103 13.7635 13.1973 13.893 13.0682 14.0224C13.0521 14.0386 13.036 14.0547 13.0198 14.071C12.7617 14.346 12.4874 14.6211 12.197 14.8638C11.9065 15.1227 11.6 15.3654 11.2934 15.5758C10.9707 15.8023 10.6641 15.9965 10.3253 16.1907C10.0026 16.3686 9.66375 16.5305 9.30878 16.6761C8.96994 16.8217 8.61498 16.9512 8.26001 17.0644C7.58233 17.2101 6.88853 17.4851 6.29153 17.5337C6.16245 17.5337 6.01723 17.566 5.88816 17.5822C5.74294 17.6146 5.61386 17.647 5.48478 17.6793C5.3557 17.7278 5.22662 17.7764 5.09754 17.8249C4.96846 17.8735 4.83938 17.9382 4.7103 18.0029C4.59735 18.0838 4.46828 18.1486 4.35533 18.2295C4.24238 18.3104 4.12944 18.4074 4.03263 18.5045C3.91968 18.5854 3.80674 18.6987 3.70993 18.7958C3.61311 18.9091 3.5163 19.0061 3.43563 19.1194C3.35496 19.2489 3.25815 19.3621 3.1936 19.4916C3.11293 19.6048 3.03226 19.7343 2.96771 19.8637C2.90315 20.0094 2.83863 20.1388 2.79023 20.2844C2.74182 20.4139 2.69342 20.5595 2.64501 20.7051C2.61277 20.8346 2.58045 20.964 2.56434 21.0935C2.56434 21.1097 2.54818 21.1258 2.54818 21.142C2.51593 21.2877 2.51593 21.4818 2.49977 21.5789C2.48361 21.6922 2.46753 21.7893 2.46753 21.9025C2.46753 21.9673 2.46753 22.0482 2.48369 22.1129C2.49985 22.2262 2.51593 22.3232 2.54826 22.4203C2.5805 22.5174 2.61282 22.6145 2.6612 22.7116V22.7278C2.7096 22.8249 2.77414 22.922 2.83868 23.0191C2.90325 23.1161 2.96777 23.2132 3.04844 23.3103C3.12911 23.3912 3.22592 23.4883 3.32273 23.5692C3.41955 23.6663 3.51636 23.7472 3.6293 23.8281C4.01654 24.1679 4.11335 24.2812 4.61354 24.5401C4.69421 24.5886 4.77489 24.621 4.8717 24.6695C4.88786 24.6695 4.90395 24.6857 4.92011 24.6857C4.92011 24.7181 4.92011 24.7343 4.93627 24.7666C4.95243 24.8961 4.98467 25.0255 5.01694 25.155C5.04919 25.3006 5.09762 25.4301 5.14603 25.5433C5.19443 25.6404 5.2267 25.7375 5.27511 25.8346C5.29127 25.8669 5.30735 25.8993 5.32351 25.9155C5.38808 26.0449 5.45259 26.1582 5.51713 26.2715C5.59781 26.3847 5.67848 26.498 5.75915 26.6113C5.83983 26.7083 5.93664 26.8216 6.03345 26.9187C6.13026 27.0158 6.22707 27.0967 6.34002 27.1938C6.34002 27.1938 6.35618 27.21 6.37227 27.21C6.46908 27.2909 6.56589 27.3718 6.6627 27.4365C6.77564 27.5174 6.88859 27.5822 7.01767 27.6469C7.13062 27.7116 7.25969 27.7763 7.38877 27.8249C7.48558 27.8734 7.59852 27.9058 7.71147 27.9381C7.72764 27.9544 7.74372 27.9544 7.77604 27.9705C7.8406 27.9867 7.92125 28.0028 7.98579 28.019C7.93739 28.8928 7.92122 29.718 8.05036 30.0093C8.19557 30.3329 8.90551 29.3459 9.61545 28.2132C9.51864 29.3297 9.4541 30.6403 9.61545 31.0287C9.79294 31.4332 10.761 30.1711 11.6001 28.7795C23.0398 26.1259 33.4792 34.0545 34.5764 45.2517C34.3666 43.5042 32.2206 42.5333 31.2364 42.7761C30.7523 43.9735 29.9295 45.5106 28.6064 46.4653C28.7193 45.3974 28.671 44.2971 28.445 43.2291C28.0901 44.7178 27.3963 46.1093 26.4443 47.3067C24.9115 47.42 23.3786 46.6757 22.5719 45.5592C22.5073 45.5106 22.4912 45.4136 22.4428 45.3488C22.3944 45.2356 22.346 45.1223 22.3137 45.009C22.2653 44.8958 22.233 44.7825 22.2169 44.6692C22.2007 44.556 22.2007 44.4427 22.2007 44.3133C22.2007 44.2323 22.2007 44.1514 22.2007 44.0705C22.2169 43.9573 22.2492 43.844 22.2814 43.7307C22.3137 43.6175 22.346 43.5042 22.3944 43.3909C22.4589 43.2777 22.5073 43.1644 22.588 43.0511C22.8623 42.2744 22.8623 41.6434 22.3621 41.2712C22.2653 41.2065 22.1685 41.158 22.0555 41.1094C21.991 41.0932 21.9103 41.0609 21.8458 41.0447C21.7974 41.0285 21.7651 41.0123 21.7167 40.9961C21.6038 40.9638 21.4908 40.9314 21.3779 40.9152C21.2649 40.8829 21.152 40.8667 21.039 40.8667C20.9261 40.8505 20.797 40.8343 20.6841 40.8343C20.6034 40.8343 20.5227 40.8505 20.442 40.8505C20.313 40.8505 20.2 40.8668 20.0871 40.8991C19.9741 40.9153 19.8612 40.9314 19.7482 40.9638C19.6353 40.9962 19.5223 41.0286 19.4094 41.0771C19.2964 41.1256 19.1996 41.1742 19.0867 41.2227C18.9899 41.2713 18.8931 41.336 18.7801 41.3845C15.0207 43.844 17.2634 49.6045 19.8289 51.2711C18.8608 51.4491 17.8766 51.6595 17.6023 51.8698C17.5861 51.886 17.57 51.9021 17.57 51.9021C18.2638 52.3228 18.9899 52.6788 19.7482 52.9863C20.7809 53.3261 21.8781 53.6335 22.3621 53.763V53.7792C23.7013 54.0542 25.0567 54.1513 26.4282 54.0704C33.576 53.5688 39.433 48.1158 40.4979 40.9315C40.5302 41.0771 40.5625 41.2065 40.5947 41.3522C40.6431 41.6434 40.7077 41.9509 40.7399 42.2583V42.2745C40.7722 42.4202 40.7883 42.5658 40.8045 42.6952V42.76C40.8207 42.9056 40.8367 43.0512 40.8367 43.1807C40.8529 43.3587 40.869 43.5367 40.869 43.7147V43.9736C40.869 44.0545 40.8851 44.1515 40.8851 44.2325C40.8851 44.3295 40.869 44.4266 40.869 44.5237V44.7502C40.869 44.8635 40.8528 44.9606 40.8528 45.0739C40.8528 45.1386 40.8528 45.2033 40.8367 45.2842C40.8367 45.3975 40.8205 45.5107 40.8205 45.6402C40.8043 45.6887 40.8043 45.7373 40.8043 45.7858C40.7882 45.9153 40.7721 46.0285 40.7559 46.158C40.7559 46.2065 40.7559 46.2551 40.7398 46.3036C40.7236 46.4654 40.6914 46.6111 40.6752 46.7729V46.7891V46.8053C40.643 46.9509 40.6106 47.1127 40.5784 47.2584V47.3069C40.5461 47.4525 40.5138 47.5982 40.4816 47.7438C40.4816 47.76 40.4654 47.7923 40.4654 47.8085C40.4332 47.9542 40.4008 48.0998 40.3525 48.2454V48.294C40.3041 48.4558 40.2557 48.6014 40.2234 48.747C40.2072 48.7632 40.2072 48.7794 40.2072 48.7794C40.1588 48.9412 40.1104 49.103 40.062 49.2648C39.9975 49.4266 39.9491 49.5722 39.8845 49.734C39.82 49.8959 39.7716 50.0577 39.7071 50.2033C39.6425 50.3651 39.578 50.5107 39.5134 50.6725H39.4973C39.4327 50.8182 39.3682 50.98 39.2875 51.1256C39.2713 51.1742 39.2552 51.2065 39.2391 51.2389C39.2229 51.2551 39.2229 51.2712 39.2068 51.2874C38.1581 53.4071 36.6091 55.2679 34.6729 56.7242C34.5438 56.8051 34.4147 56.9022 34.2857 56.9993C34.2534 57.0316 34.205 57.0478 34.1727 57.0802C34.0598 57.1611 33.9468 57.242 33.8177 57.3229L33.8661 57.42H33.8823C34.1082 57.3877 34.3341 57.3553 34.56 57.3229H34.5761C34.9956 57.2582 35.4152 57.1773 35.8347 57.0964C35.9476 57.0802 36.0767 57.0478 36.1896 57.0155C36.2703 56.9992 36.3349 56.9831 36.4155 56.9669C36.5285 56.9507 36.6414 56.9184 36.7544 56.9022C36.8512 56.8699 36.948 56.8536 37.0448 56.8213C38.6583 56.4329 40.2234 55.899 41.7239 55.2679C39.1585 58.7792 35.7217 61.6108 31.7041 63.4717C33.5596 63.3422 35.4152 63.0348 37.2061 62.517C43.7086 60.5914 49.1783 56.2064 52.4537 50.3003C51.7922 54.0382 50.3078 57.598 48.1134 60.7047C49.6785 59.6691 51.1145 58.4717 52.4215 57.1125C56.0357 53.3262 58.4076 48.5205 59.2143 43.3587C59.7629 45.9153 59.9243 48.5528 59.6822 51.1579C71.3317 34.8637 60.6503 17.9708 56.1809 13.521C56.1648 13.4887 56.1487 13.4725 56.1487 13.4401C56.1325 13.4563 56.1325 13.4563 56.1325 13.4724C56.1325 13.4562 56.1325 13.4562 56.1164 13.4401C56.1164 13.6343 56.1002 13.8284 56.0841 14.0226C56.0357 14.3948 55.9873 14.7508 55.9228 15.1067C55.8421 15.4627 55.7453 15.8187 55.6485 16.1747C55.5355 16.5145 55.4065 16.8705 55.2612 17.2103C55.116 17.5339 54.9547 17.8737 54.7772 18.1973C54.5997 18.5048 54.4061 18.8284 54.1963 19.1196C53.9866 19.4271 53.7607 19.7183 53.5348 19.9934C53.2927 20.2847 53.0346 20.5436 52.7764 20.8024C52.6151 20.9481 52.4699 21.0775 52.3085 21.207C52.1794 21.3202 52.0665 21.4173 51.9374 21.5306C51.647 21.7571 51.3565 21.9675 51.0339 22.1616C50.7273 22.3558 50.4046 22.55 50.0819 22.7118C49.7431 22.8736 49.4042 23.0192 49.0654 23.1649C48.7265 23.2943 48.3716 23.4076 48.0166 23.5047C47.6616 23.6017 47.2905 23.6827 46.9356 23.7474C46.5645 23.8121 46.1933 23.8445 45.8384 23.8768C45.5802 23.893 45.3221 23.9092 45.0639 23.9092C44.6928 23.9092 44.3217 23.8768 43.9667 23.8444C43.5956 23.8121 43.2245 23.7635 42.8695 23.6826C42.4984 23.6179 42.1434 23.5208 41.7885 23.4075H41.7723C42.1273 23.3752 42.4823 23.3428 42.8372 23.2781C43.2083 23.2133 43.5633 23.1325 43.9183 23.0354C44.2733 22.9383 44.6282 22.825 44.9671 22.6956C45.322 22.5661 45.6609 22.4043 45.9836 22.2425C46.3224 22.0807 46.629 21.9027 46.9517 21.7085C47.2582 21.4982 47.5648 21.2878 47.8552 21.0613C48.1457 20.8348 48.42 20.592 48.6781 20.3331C48.9524 20.0904 49.1944 19.8154 49.4365 19.5403C49.6785 19.249 49.9044 18.9578 50.1141 18.6665C50.1464 18.618 50.1787 18.5532 50.211 18.5047C50.3723 18.2458 50.5336 17.9869 50.6789 17.728C50.8563 17.4044 51.0177 17.0808 51.1629 16.741C51.3081 16.4012 51.4372 16.0614 51.5502 15.7054C51.6631 15.3656 51.7438 15.0096 51.8245 14.6536C51.889 14.2815 51.9535 13.9255 51.9858 13.5695C52.018 13.1973 52.0504 12.8252 52.0504 12.4692C52.0504 12.2103 52.0342 11.9514 52.0181 11.6925C51.9859 11.3203 51.9374 10.9644 51.889 10.6084C51.8245 10.2362 51.7438 9.88024 51.647 9.52426C51.5341 9.18446 51.4211 8.82848 51.292 8.48868C51.163 8.14888 51.0016 7.80908 50.8403 7.48545C50.6628 7.16184 50.4853 6.83822 50.2917 6.53078C50.0819 6.22335 49.8722 5.93209 49.6463 5.64083C49.4042 5.36575 49.1622 5.09067 48.904 4.8156C48.775 4.68615 48.6298 4.54052 48.4845 4.41108C47.7585 3.84474 47.0001 3.31077 46.2418 2.82534C46.1288 2.76059 46.032 2.71207 45.9191 2.66353C45.3866 2.32373 44.8864 2.14564 44.3862 1.98384Z" fill="#E0234E"/>
</svg>
