<svg width="1440" height="82" viewBox="0 0 1440 82" fill="none" xmlns="http://www.w3.org/2000/svg">
<path fill-rule="evenodd" clip-rule="evenodd" d="M0 0.386249L34.8 4.92035C68.4 9.45444 136.8 18.5226 205.2 23.0567C274.8 27.5908 343.2 27.5908 411.6 21.5454C480 15.4999 548.4 3.40898 616.8 0.386249C685.2 -2.63648 741 13.0279 809.4 14.5393C877.8 16.0506 960 3.40898 1028.4 9.45444C1096.8 15.4999 1165.2 30.6136 1234.8 30.6136C1303.2 30.6136 1371.6 15.4999 1405.2 7.94308L1440 0.386249V82H1405.2C1371.6 82 1303.2 82 1234.8 82C1165.2 82 1096.8 82 1028.4 82C960 82 891.6 82 823.2 82C754.8 82 685.2 82 616.8 82C548.4 82 480 82 411.6 82C343.2 82 274.8 82 205.2 82C136.8 82 68.4 82 34.8 82H0V0.386249Z" fill="#0099FF"/>
</svg>
