<svg viewBox="0 0 44 64" fill="none" xmlns="http://www.w3.org/2000/svg">
<g clip-path="url(#clip0_91_15264)">
<path d="M22 32.0002C22 29.1712 23.1238 26.4581 25.1242 24.4577C27.1246 22.4573 29.8377 21.3335 32.6667 21.3335C35.4956 21.3335 38.2087 22.4573 40.2091 24.4577C42.2095 26.4581 43.3333 29.1712 43.3333 32.0002C43.3333 34.8291 42.2095 37.5422 40.2091 39.5426C38.2087 41.543 35.4956 42.6668 32.6667 42.6668C29.8377 42.6668 27.1246 41.543 25.1242 39.5426C23.1238 37.5422 22 34.8291 22 32.0002Z" fill="#1ABCFE"/>
<path d="M0.666656 53.3332C0.666656 50.5042 1.79046 47.7911 3.79085 45.7907C5.79124 43.7903 8.50435 42.6665 11.3333 42.6665H22V53.3332C22 56.1621 20.8762 58.8753 18.8758 60.8756C16.8754 62.876 14.1623 63.9998 11.3333 63.9998C8.50435 63.9998 5.79124 62.876 3.79085 60.8756C1.79046 58.8753 0.666656 56.1621 0.666656 53.3332Z" fill="#0ACF83"/>
<path d="M22 0V21.3333H32.6667C35.4956 21.3333 38.2087 20.2095 40.2091 18.2091C42.2095 16.2087 43.3333 13.4956 43.3333 10.6667C43.3333 7.83769 42.2095 5.12458 40.2091 3.12419C38.2087 1.12381 35.4956 0 32.6667 0L22 0Z" fill="#FF7262"/>
<path d="M0.666656 10.6667C0.666656 13.4956 1.79046 16.2087 3.79085 18.2091C5.79124 20.2095 8.50435 21.3333 11.3333 21.3333H22V0H11.3333C8.50435 0 5.79124 1.12381 3.79085 3.12419C1.79046 5.12458 0.666656 7.83769 0.666656 10.6667Z" fill="#F24E1E"/>
<path d="M0.666656 32.0002C0.666656 34.8291 1.79046 37.5422 3.79085 39.5426C5.79124 41.543 8.50435 42.6668 11.3333 42.6668H22V21.3335H11.3333C8.50435 21.3335 5.79124 22.4573 3.79085 24.4577C1.79046 26.4581 0.666656 29.1712 0.666656 32.0002Z" fill="#A259FF"/>
</g>
<defs>
<clipPath id="clip0_91_15264">
<rect width="42.6667" height="64" fill="white" transform="translate(0.666656)"/>
</clipPath>
</defs>
</svg>
