<svg width="64" height="63" viewBox="0 0 64 63" fill="none" xmlns="http://www.w3.org/2000/svg">
<path d="M48.8612 22.616C42.6493 12.9726 29.8489 10.2247 20.2721 16.4796C10.6942 22.7353 7.96624 35.6239 14.1788 45.2683C20.3913 54.9127 33.191 57.6596 42.7689 51.404C52.3457 45.149 55.0737 32.2604 48.8612 22.616Z" fill="#F4900C"/>
<path d="M31.8953 15.7818C31.9939 15.316 32.5987 15.0262 33.4013 14.9787C35.0072 9.82207 40.0061 5.17383 40.2331 4.96538C40.7463 4.49638 41.535 4.53158 42.0015 5.04483C42.468 5.55809 42.434 6.3561 41.9233 6.82653C41.8737 6.87243 37.3198 11.1173 35.8575 15.5396C36.5045 15.9064 36.89 16.3913 36.7955 16.8335C36.6522 17.515 35.4376 17.8316 34.0843 17.5412C32.7318 17.2518 31.752 16.4634 31.8953 15.7818Z" fill="#662113"/>
<path d="M17.3312 15.3933C17.3312 15.3933 23.5393 17.831 28.3051 16.1542C31.9317 14.8786 36.1404 12.235 35.9283 10.9903C35.7159 9.7472 31.5922 7.90278 27.0293 8.69376C22.4671 9.4858 17.3312 15.3933 17.3312 15.3933Z" fill="#5C913B"/>
</svg>
