<svg viewBox="0 0 1440 61" fill="none" xmlns="http://www.w3.org/2000/svg">
<path fill-rule="evenodd" clip-rule="evenodd" d="M0 6.25907L34.8 9.30023C68.4 12.3414 136.8 18.4237 205.2 21.4649C274.8 24.506 281.6 38.5549 350 34.5C418.4 30.4451 470.1 8.28651 538.5 6.25907C606.9 4.23163 725.6 33.4863 794 34.5C862.4 35.5137 1024.1 7.27279 1092.5 11.3277C1160.9 15.3826 1239.4 34.5 1309 34.5C1377.4 34.5 1406.4 5.0686 1440 0L1546 11.3277L1440 61H1405.2C1371.6 61 1303.2 61 1234.8 61C1165.2 61 1096.8 61 1028.4 61C960 61 891.6 61 823.2 61C754.8 61 685.2 61 616.8 61C548.4 61 480 61 411.6 61C343.2 61 274.8 61 205.2 61C136.8 61 68.4 61 34.8 61H0V6.25907Z" fill="#0090EF"/>
</svg>
