<svg width="27" height="22" viewBox="0 0 27 22" fill="none" xmlns="http://www.w3.org/2000/svg">
<path d="M22.8334 0.333496H4.16675C3.10588 0.333496 2.08847 0.754924 1.33832 1.50507C0.588176 2.25521 0.166748 3.27263 0.166748 4.3335V17.6668C0.166748 18.7277 0.588176 19.7451 1.33832 20.4953C2.08847 21.2454 3.10588 21.6668 4.16675 21.6668H22.8334C23.8943 21.6668 24.9117 21.2454 25.6618 20.4953C26.412 19.7451 26.8334 18.7277 26.8334 17.6668V4.3335C26.8334 3.27263 26.412 2.25521 25.6618 1.50507C24.9117 0.754924 23.8943 0.333496 22.8334 0.333496ZM22.2867 3.00016L14.4467 10.8402C14.3228 10.9651 14.1753 11.0643 14.0129 11.132C13.8504 11.1997 13.6761 11.2346 13.5001 11.2346C13.3241 11.2346 13.1498 11.1997 12.9873 11.132C12.8248 11.0643 12.6774 10.9651 12.5534 10.8402L4.71341 3.00016H22.2867ZM24.1667 17.6668C24.1667 18.0205 24.0263 18.3596 23.7762 18.6096C23.5262 18.8597 23.187 19.0002 22.8334 19.0002H4.16675C3.81313 19.0002 3.47399 18.8597 3.22394 18.6096C2.97389 18.3596 2.83341 18.0205 2.83341 17.6668V4.88016L10.6734 12.7202C11.4234 13.4692 12.4401 13.89 13.5001 13.89C14.5601 13.89 15.5767 13.4692 16.3267 12.7202L24.1667 4.88016V17.6668Z" fill="#FFD600"/>
</svg>
