<svg viewBox="0 0 149 149" fill="none" xmlns="http://www.w3.org/2000/svg">
<path d="M124.647 65.739C116.675 35.9902 86.0953 18.332 56.3465 26.3032C26.5944 34.2752 8.93952 64.8544 16.9116 94.6065C24.8836 124.359 55.4628 142.014 85.2149 134.041C114.964 126.07 132.619 95.4911 124.647 65.739Z" fill="#F4900C"/>
<path d="M86.7532 34.1992C87.3913 33.094 89.1829 32.8588 91.2819 33.4057C99.6658 21.5994 116.337 13.913 117.093 13.5707C118.797 12.8025 120.792 13.5486 121.565 15.2451C122.338 16.9415 121.591 18.9472 119.892 19.7211C119.727 19.7968 104.53 26.8254 97.1222 36.8796C98.4793 38.3531 99.0679 39.9099 98.4599 40.9581C97.5287 42.5758 94.1499 42.372 90.9168 40.5054C87.6847 38.6421 85.8219 35.8169 86.7532 34.1992Z" fill="#662113"/>
<path d="M49.6966 21.0874C49.6966 21.0874 63.6145 32.4677 77.2316 32.1607C87.5934 31.9282 100.58 28.6934 101.065 25.3442C101.547 21.9992 92.4884 13.8659 80.1241 12.0841C67.7608 10.3055 49.6966 21.0874 49.6966 21.0874Z" fill="#5C913B"/>
</svg>
