<svg viewBox="0 0 79 79" fill="none" xmlns="http://www.w3.org/2000/svg">
<path d="M61.4036 51.3421C67.4614 37.5971 61.307 21.5075 47.6568 15.4077C34.0051 9.30714 18.028 15.505 11.9695 29.2515C5.91108 42.998 12.0662 59.086 25.7179 65.1865C39.3681 71.2864 55.3451 65.0886 61.4036 51.3421Z" fill="#F4900C"/>
<path d="M56.7203 27.7362C57.2978 27.5122 58.0452 27.9726 58.6704 28.8243C65.4302 26.9124 74.0609 29.1081 74.45 29.2097C75.3271 29.441 75.8523 30.3365 75.627 31.218C75.4016 32.0995 74.5088 32.6322 73.6319 32.4046C73.5465 32.3827 65.6728 30.3899 59.8148 31.9357C59.8778 32.9117 59.6254 33.6837 59.0767 33.8953C58.2325 34.224 57.0201 33.1099 56.3694 31.409C55.718 29.7095 55.8762 28.065 56.7203 27.7362Z" fill="#662113"/>
<path d="M46.7375 11.3863C46.7375 11.3863 48.5197 19.979 53.7497 24.0404C57.7291 27.1313 63.6133 29.8872 64.8166 28.7638C66.0178 27.6413 65.0791 21.7727 60.9582 17.3024C56.8366 12.8335 46.7375 11.3863 46.7375 11.3863Z" fill="#5C913B"/>
</svg>
