<svg viewBox="0 0 102 64" fill="none" xmlns="http://www.w3.org/2000/svg">
<g clip-path="url(#clip0_91_15251)">
<mask id="mask0_91_15251" style="mask-type:luminance" maskUnits="userSpaceOnUse" x="-2" y="0" width="106" height="63">
<path d="M-1.36363 0H103.364V62.8364H-1.36363V0Z" fill="white"/>
</mask>
<g mask="url(#mask0_91_15251)">
<path fill-rule="evenodd" clip-rule="evenodd" d="M51 0C37.0364 0 28.3091 6.98182 24.8182 20.9455C30.0545 13.9636 36.1636 11.3455 43.1455 13.0909C47.129 14.0858 49.976 16.9775 53.1275 20.1755C58.2611 25.3867 64.2034 31.4182 77.1818 31.4182C91.1455 31.4182 99.8727 24.4364 103.364 10.4727C98.1273 17.4545 92.0182 20.0727 85.0364 18.3273C81.0528 17.3324 78.2058 14.4407 75.0543 11.2427C69.9207 6.03151 63.9784 0 51 0ZM24.8182 31.4182C10.8545 31.4182 2.12728 38.4 -1.36363 52.3636C3.87273 45.3818 9.98182 42.7636 16.9636 44.5091C20.9472 45.5059 23.7942 48.3956 26.9457 51.5937C32.0793 56.8048 38.0216 62.8364 51 62.8364C64.9636 62.8364 73.6909 55.8545 77.1818 41.8909C71.9455 48.8727 65.8364 51.4909 58.8545 49.7455C54.871 48.7505 52.024 45.8589 48.8725 42.6608C43.7389 37.4497 37.7966 31.4182 24.8182 31.4182Z" fill="#38BDF8"/>
</g>
</g>
<defs>
<clipPath id="clip0_91_15251">
<rect width="104.727" height="64" fill="white" transform="translate(-1.36363)"/>
</clipPath>
</defs>
</svg>
